<svg version="1.2" xmlns="http://www.w3.org/2000/svg" viewBox="0 0 1080 1080" width="1080" height="1080"><style>.a{fill:#090909}.b{fill:#060606}.c{fill:#080808}.d{fill:#040404}.e{fill:#0a0a0a}.f{fill:#0d0d0d}.g{fill:#101010}.h{fill:#0b0b0b}</style><path class="a" d="m233 607.5h-74.6v-214.4h123.5v14.6h-108.5v184.6h191.5v15.2c0 0-131.9 0-131.9 0z"/><path fill-rule="evenodd" class="b" d="m860 607.5h-74.7v-14.9h113.6v-184.6h-166.5v-14.9h181.6v214.4c0 0-54 0-54 0zm-305.4-274.3c22.7 4.2 37 17.7 43.7 38.7 8.2 25.6 7.7 50.9-6 74.7-9.8 17-25.2 25.7-44.8 26.2-14.8 0.4-29.5 0.1-44.4 0.1v-139.7c17.2 0 34.1 0 51.5 0zm-37.7 56.3v69.5c10.7 0 20.8 0.4 30.9-0.2 14-0.8 25.5-6.9 32.3-19.4 13.2-24.2 12.7-49 0.2-73.3-5.4-10.4-14.7-17.4-26.3-18.7-12.1-1.3-24.4-0.3-37.2-0.3 0 0 0 42.4 0.1 42.4z"/><path class="c" d="m338.8 333.1c3.8-0.4 3.2 1.9 3.2 3.9v55.6h63v-59.1h14.3v139.7h-14.1v-66.3h-63v66.4h-13.9v-140.2z"/><path class="a" d="m529.9 596c3 7.7 5.9 15.1 9.2 23.8 3.7-9.3 7.1-17.2 9.8-25.4 1.7-5.2 4-8.1 10.2-5.9l12.3 31.4 18.5-48.1c7.4-19 14.8-38 21.9-57 1.1-3 2.4-4.3 5.6-4.1 3.4 0.3 6.9 0.1 10.9 0.1l-53.1 131.8c-5.4 1.8-8.2 0.3-10-5.2-2.6-8.1-6.2-16-9.8-25-2.1 5-3.9 9.2-5.6 13.4-1.9 4.6-3.9 9.2-5.6 13.9-0.9 2.5-2 3.6-4.9 3.6-2.8 0-4.1-0.8-5.1-3.3-17.2-42.8-34.4-85.5-52-129.2 4.8 0 9.2-0.3 13.5 0.2 1.2 0.2 2.5 2.7 3.2 4.4 10.4 26.7 20.7 53.5 31.1 80.6z"/><path class="d" d="m665 332.4l21.2 0.1v13.5h-57.1v47.8h54.9v13.2h-54.7v51.9h57.7v13.9h-71.7v-140.3z"/><path fill-rule="evenodd" class="e" d="m502.3 644.9c-4.3-11-8.7-21.9-12.9-32.9-1.1-3.1-2.4-4.3-5.9-4.2-15.7 0.2-31.3 0.2-47 0-3.2 0-4.6 0.9-5.7 3.9q-1.3 3.8-2.8 7.6-1.4 3.8-2.9 7.5-1.5 3.8-3 7.5-1.5 3.8-3.1 7.5c-0.5 1.3-2.6 2.8-4.1 2.9-3.8 0.5-7.6 0.2-12 0.2 4.6-11.6 9-22.8 13.5-34 12.5-31.4 25.2-62.7 37.6-94.1 1.8-4.6 3.8-7.7 9.9-5.5l53.5 133.6zm-29.7-76.9l-12.5-32.2-22.5 58.3h45c-3.4-8.8-6.5-17.1-10-26.1z"/><path fill-rule="evenodd" class="c" d="m638.7 528.6c2.1-5.1 4.2-9.8 5.8-14.7 0.9-2.6 2.2-3.5 5-3.5 2.9 0 4 1.1 5 3.6 11.4 28.6 22.9 57.2 34.4 85.8 5.9 14.6 11.7 29.2 17.9 44.7-4.9 0-9.3 0.3-13.7-0.1-1.1-0.2-2.4-2.4-3-3.9q-1.5-3.7-3-7.4-1.4-3.7-2.9-7.4-1.4-3.7-2.8-7.4-1.4-3.8-2.8-7.5c-1-2.7-2.2-3.8-5.4-3.7-15.5 0.2-30.9 0.2-46.4 0-4-0.1-5.5 1.4-6.8 4.8-3.4 9.5-7.4 18.8-10.8 28.3-1.2 3.3-2.9 4.8-6.5 4.4-3.1-0.3-6.2 0-10.5 0 15.6-39 31-77.3 46.5-116zm20.3 31l-9.5-24.1-22.6 58.4h45.2c-4.4-11.4-8.7-22.5-13.1-34.3z"/><path class="a" d="m703.9 519c7.3 18 14.4 35.6 21.9 54.3l25.5-63h13.4c-2.2 5.5-4.2 10.6-6.3 15.8-8 19.6-16.1 39.2-24 58.8q-0.4 0.9-0.6 1.9-0.3 0.9-0.5 1.9-0.2 1-0.3 2 0 0.9 0 1.9c-0.2 15.2-0.1 30.3-0.1 45.5v6.3h-13.9c0-17.3 0-34.3-0.1-51.3q0-1-0.1-1.9-0.1-1-0.3-2-0.2-0.9-0.4-1.9-0.3-0.9-0.7-1.8c-9.4-23.5-19.1-46.9-28.6-70.4-0.7-1.5-1.1-3.1-1.7-4.7 12.9-0.9 12.9-0.9 16.8 8.6z"/><path class="c" d="m482.3 333.2c0.4 4.3 0.4 8.4 0.4 12.6h-15.3v114.6h15.5v12.9h-45.6v-12.7h15.8v-127.5c9.9 0 19.4 0 29.2 0.1z"/><path fill-rule="evenodd" class="f" d="m567 680.1c6.8 11.2 7.8 23 3.4 35.3-3.5 10.1-12 16.2-22.5 16.5-10.9 0.3-19.8-5.2-24.1-15.1-4.2-10-4.3-20.2-0.5-30.1 6-15.6 23-20.7 38.4-11.5q0.7 0.6 1.3 1.3 0.7 0.6 1.4 1.2 0.6 0.6 1.3 1.2 0.6 0.6 1.3 1.2zm-6.1 35.1c4.1-8.2 4.3-16.6 1.3-25.1-2.5-7-8-10.8-15-10.9-6.8-0.2-12.7 3.7-15.5 10.4-2.7 6.7-2.8 13.5-0.9 20.4 1.7 6.7 5.6 11.4 12.4 12.8 7.1 1.5 13.1-0.7 17.7-7.6zm-59.4 5.5c2.5-3.4 4.6-6.7 7.2-10.6h7.2c-1.4 12-8.7 20-20 21.7-11.3 1.7-21.9-3.9-26.3-14.5-4.7-11.5-4.6-23.1 1.3-34.1 5.3-10 15.5-14.3 27.1-12.2 9.7 1.8 15.7 8.6 17.7 20.3h-8.2c-1.8-6.4-5.4-11.1-12.5-12.2-8.9-1.3-16.6 3.5-18.4 12.9q-0.5 2.2-0.7 4.5-0.2 2.3-0.3 4.6 0 2.2 0.2 4.5 0.2 2.3 0.6 4.5c2.3 11.9 13.2 16.3 25.1 10.6z"/><path class="g" d="m710.2 721.9c7.8 0.4 15.2 0.4 23 0.4v8.4h-31.9v-59.2h31.6v8.3h-22.7v16h21.8v8.6h-22.1c0 5.9 0 11.5 0.3 17.5z"/><path class="h" d="m668.9 686v9.8h21.8v8.6h-21.6v17.9h22.8v8.5h-31.6v-59.3h31.4v8.3h-22.8z"/><path class="f" d="m593 671.1h19.3v8.5h-23.1v16.3h21.1v8.8h-21.2v26h-8.8v-59.6c0 0 12.7 0 12.7 0zm35.9 14.9v9.9h21.3v9h-21.3v25.9h-8.7v-59.5h31.9v8.5h-23.2z"/><path class="g" d="m471.1 304.9c3.1 3.5 4 7.5 1.1 10.6-1.7 2-5.3 3.6-7.9 3.4-2.3-0.2-5.1-2.7-6.5-4.9-2.1-3.3-0.8-6.8 2.1-9.2 3.5-2.9 7.3-2.9 11.2 0.1z"/></svg>